<?xml version="1.0" encoding="utf-8"?>
<!-- Generator: Adobe Illustrator 23.0.3, SVG Export Plug-In . SVG Version: 6.00 Build 0)  -->
<svg version="1.1" id="Layer_1" xmlns="http://www.w3.org/2000/svg" xmlns:xlink="http://www.w3.org/1999/xlink" x="0px" y="0px"
	 viewBox="0 0 24 24" style="enable-background:new 0 0 24 24;" xml:space="preserve">
<style type="text/css">
	.st0{fill:#A70000;}
	.st1{fill:#00A7FF;}
	.st2{fill:#E1FF33;}
	.st3{fill:none;}
	.st4{fill:#002B7C;}
	.st5{fill:#FFFFFF;}
	.st6{fill:#722AB1;}
	.st7{fill:#005F58;}
	.st8{fill:#2CFF86;}
	.st9{fill:#FF7474;}
</style>
<rect class="st1" width="24" height="24"/>
<path class="st3" d="M24.684,13.051V10.95c0-0.339-0.181-0.653-0.475-0.822l-1.82-1.051c-0.294-0.17-0.656-0.17-0.949,0l-1.821,1.05
	c-0.294,0.17-0.475,0.483-0.475,0.822v2.101c0,0.339,0.181,0.653,0.475,0.822l1.82,1.051c0.294,0.17,0.656,0.17,0.949,0l1.82-1.051
	C24.502,13.704,24.684,13.39,24.684,13.051z"/>
<path class="st5" d="M11.917,8.74c0.151,0,0.301,0.039,0.436,0.117l2.067,1.194c0.27,0.156,0.436,0.444,0.436,0.756v2.387
	c0,0.312-0.166,0.6-0.436,0.756l-2.067,1.194c-0.135,0.078-0.286,0.117-0.436,0.117s-0.301-0.039-0.436-0.117l-2.067-1.194
	c-0.27-0.156-0.436-0.444-0.436-0.756v-2.387c0-0.312,0.166-0.6,0.436-0.756l2.067-1.194C11.615,8.779,11.766,8.74,11.917,8.74
	 M11.917,5.99c-0.635,0-1.261,0.168-1.811,0.485L8.038,7.669c-1.117,0.645-1.811,1.847-1.811,3.137v2.387
	c0,1.29,0.694,2.492,1.811,3.137l2.067,1.194c0.55,0.318,1.176,0.485,1.811,0.485c0.635,0,1.261-0.168,1.811-0.485l2.067-1.194
	c1.117-0.645,1.811-1.847,1.811-3.137v-2.387c0-1.29-0.694-2.492-1.811-3.137l-2.067-1.194C13.178,6.158,12.552,5.99,11.917,5.99
	L11.917,5.99z"/>
</svg>
