<?xml version="1.0" encoding="utf-8"?>
<!-- Generator: Adobe Illustrator 23.0.3, SVG Export Plug-In . SVG Version: 6.00 Build 0)  -->
<svg version="1.1" id="Layer_1" xmlns="http://www.w3.org/2000/svg" xmlns:xlink="http://www.w3.org/1999/xlink" x="0px" y="0px"
	 viewBox="0 0 24 24" style="enable-background:new 0 0 24 24;" xml:space="preserve">
<style type="text/css">
	.st0{fill:#D01246;}
	.st1{fill:#FFFFFF;}
</style>
<rect y="0" class="st0" width="24" height="24"/>
<path class="st1" d="M17.783,10.913c-0.149-0.369-0.369-0.7-0.652-0.982c-0.278-0.279-0.609-0.499-0.979-0.649
	c-0.354-0.144-0.728-0.217-1.112-0.217h-0.002c-0.029,0-0.056,0.007-0.085,0.008c0.001-0.035,0.01-0.069,0.01-0.105
	c0.001-0.38-0.072-0.756-0.217-1.112c-0.15-0.37-0.37-0.7-0.652-0.982c-0.278-0.279-0.608-0.498-0.979-0.649
	c-0.355-0.144-0.729-0.217-1.113-0.217h-0.002c-0.385,0-0.759,0.073-1.114,0.217c-0.37,0.15-0.701,0.37-0.983,0.653
	c-0.279,0.278-0.499,0.609-0.649,0.98C9.111,8.213,9.038,8.589,9.038,8.974c0,0.027,0.007,0.054,0.008,0.082
	c-0.034-0.001-0.067-0.01-0.1-0.01H8.944c-0.385,0-0.76,0.073-1.115,0.217c-0.369,0.15-0.7,0.369-0.982,0.652
	c-0.279,0.278-0.499,0.609-0.649,0.979c-0.145,0.356-0.218,0.732-0.217,1.116c-0.001,0.38,0.072,0.755,0.217,1.112
	c0.15,0.37,0.37,0.701,0.653,0.983c0.278,0.279,0.608,0.498,0.979,0.649c0.355,0.144,0.729,0.217,1.112,0.217
	c0.029,0,0.057-0.007,0.087-0.008c-0.001,0.035-0.01,0.069-0.01,0.105c-0.001,0.38,0.072,0.755,0.217,1.112
	c0.15,0.37,0.369,0.7,0.652,0.982c0.278,0.279,0.609,0.499,0.979,0.649c0.354,0.144,0.728,0.217,1.112,0.217
	c0.387,0,0.762-0.073,1.117-0.217c0.369-0.149,0.7-0.369,0.982-0.652c0.279-0.278,0.499-0.609,0.649-0.979
	c0.144-0.356,0.217-0.732,0.217-1.116c0-0.028-0.007-0.054-0.008-0.082c0.034,0.001,0.066,0.01,0.1,0.01
	c0.387,0,0.762-0.073,1.117-0.217c0.369-0.149,0.7-0.369,0.982-0.652c0.279-0.278,0.499-0.609,0.649-0.979
	c0.144-0.355,0.217-0.731,0.217-1.116C18.001,11.645,17.927,11.27,17.783,10.913z M10.743,8.461c0.068-0.168,0.17-0.321,0.298-0.449
	c0.128-0.129,0.281-0.23,0.449-0.298c0.162-0.066,0.336-0.1,0.511-0.099c0.175,0,0.349,0.034,0.511,0.099
	c0.168,0.068,0.321,0.17,0.449,0.298c0.129,0.128,0.23,0.281,0.298,0.449c0.066,0.162,0.1,0.336,0.099,0.511
	c0,0.175-0.033,0.349-0.099,0.511c-0.068,0.168-0.17,0.321-0.298,0.449c0,0,0,0,0,0h0l-0.941,0.941c-0.011,0.01-0.027,0.01-0.038,0
	l-0.941-0.941c0,0,0,0,0,0c-0.129-0.128-0.23-0.281-0.298-0.449c-0.066-0.162-0.1-0.336-0.099-0.511
	C10.643,8.796,10.677,8.623,10.743,8.461z M9.904,12.968c-0.128,0.129-0.281,0.23-0.449,0.298c-0.162,0.066-0.336,0.1-0.511,0.099
	c-0.175,0-0.349-0.034-0.511-0.099c-0.168-0.068-0.321-0.17-0.449-0.298c-0.129-0.128-0.23-0.281-0.298-0.449
	c-0.066-0.162-0.1-0.336-0.099-0.511c0-0.175,0.034-0.349,0.099-0.511c0.068-0.168,0.17-0.321,0.298-0.449
	c0.128-0.129,0.281-0.23,0.449-0.298c0.162-0.066,0.336-0.1,0.511-0.099c0.175,0,0.349,0.034,0.511,0.099
	c0.168,0.068,0.321,0.17,0.449,0.298c0,0,0,0,0,0v0l0.941,0.941c0.01,0.01,0.01,0.027,0,0.038L9.904,12.968
	C9.904,12.968,9.904,12.968,9.904,12.968z M13.239,15.576c-0.068,0.168-0.17,0.321-0.298,0.449c-0.128,0.129-0.281,0.23-0.449,0.298
	c-0.162,0.066-0.336,0.1-0.511,0.099c-0.175,0-0.349-0.033-0.511-0.099c-0.168-0.068-0.321-0.17-0.449-0.298
	c-0.129-0.128-0.23-0.281-0.298-0.449c-0.066-0.162-0.1-0.336-0.099-0.511c0-0.175,0.034-0.349,0.099-0.511
	c0.068-0.168,0.17-0.321,0.298-0.449c0,0,0,0,0,0h0l0.941-0.941c0.01-0.01,0.027-0.01,0.038,0l0.941,0.941c0,0,0,0,0,0
	c0.129,0.128,0.23,0.281,0.298,0.449c0.066,0.162,0.1,0.336,0.099,0.511C13.339,15.24,13.305,15.413,13.239,15.576z M16.296,12.539
	c-0.068,0.168-0.17,0.321-0.298,0.449c-0.128,0.129-0.281,0.23-0.449,0.298c-0.162,0.066-0.336,0.1-0.511,0.099
	c-0.175,0-0.349-0.033-0.511-0.099c-0.168-0.068-0.321-0.17-0.449-0.298c0,0,0,0,0,0v0l-0.941-0.941
	c-0.011-0.01-0.011-0.027,0-0.038l0.941-0.941c0,0,0,0,0,0c0.128-0.129,0.281-0.23,0.449-0.298c0.162-0.066,0.336-0.1,0.511-0.099
	c0.175,0,0.349,0.033,0.511,0.099c0.168,0.068,0.321,0.17,0.449,0.298c0.129,0.128,0.23,0.281,0.298,0.449
	c0.066,0.162,0.1,0.336,0.099,0.511C16.395,12.203,16.362,12.377,16.296,12.539z"/>
</svg>
