<?xml version="1.0" encoding="utf-8"?>
<!-- Generator: Adobe Illustrator 23.0.3, SVG Export Plug-In . SVG Version: 6.00 Build 0)  -->
<svg version="1.1" id="Layer_1" xmlns="http://www.w3.org/2000/svg" xmlns:xlink="http://www.w3.org/1999/xlink" x="0px" y="0px"
	 viewBox="0 0 24 24" style="enable-background:new 0 0 24 24;" xml:space="preserve">
<style type="text/css">
	.st0{fill:#A70000;}
	.st1{fill:#00A7FF;}
	.st2{fill:#E1FF33;}
	.st3{fill:none;}
	.st4{fill:#002B7C;}
	.st5{fill:#FFFFFF;}
	.st6{fill:#722AB1;}
	.st7{fill:#005F58;}
	.st8{fill:#2CFF86;}
	.st9{fill:#FF7474;}
</style>
<rect class="st7" width="24" height="24"/>
<g>
	<path class="st5" d="M17.803,12.092h-3.047c-0.053,0-0.093,0.042-0.095,0.094c-0.05,1.425-1.224,2.569-2.661,2.569
		s-2.611-1.144-2.661-2.569c-0.002-0.052-0.042-0.094-0.095-0.094H6.197c-0.057,0-0.105,0.049-0.104,0.106
		C6.15,15.407,8.778,18,12,18s5.85-2.593,5.907-5.802C17.908,12.141,17.86,12.092,17.803,12.092z"/>
	<path class="st5" d="M11.984,9.561c0.983,0,1.781-0.797,1.781-1.781C13.765,6.797,12.968,6,11.984,6
		c-0.983,0-1.781,0.797-1.781,1.781C10.204,8.764,11.001,9.561,11.984,9.561z"/>
</g>
</svg>
