<?xml version="1.0" encoding="utf-8"?>
<!-- Generator: Adobe Illustrator 23.0.3, SVG Export Plug-In . SVG Version: 6.00 Build 0)  -->
<svg version="1.1" id="Layer_1" xmlns="http://www.w3.org/2000/svg" xmlns:xlink="http://www.w3.org/1999/xlink" x="0px" y="0px"
	 viewBox="0 0 24 24" style="enable-background:new 0 0 24 24;" xml:space="preserve">
<style type="text/css">
	.st0{fill:#FFD700;}
</style>
<rect y="0" class="st0" width="24" height="24"/>
<g>
	<path d="M6.206,10.845v4.077c0,0.336,0.179,0.646,0.47,0.813l3.061,1.767c0.291,0.168,0.649,0.168,0.939,0l3.061-1.767
		c0.291-0.168,0.47-0.478,0.47-0.813v-4.076l-3.53,2.038c-0.291,0.168-0.649,0.168-0.939,0L6.206,10.845z"/>
	<path d="M17.587,8.179l-2.911-1.681c-0.291-0.168-0.649-0.168-0.94,0l-3.53,2.038l4,2.309l3.381-1.952
		C17.862,8.734,17.862,8.337,17.587,8.179z"/>
</g>
</svg>
